<svg version="1.0" xmlns="http://www.w3.org/2000/svg" width="200" height="55.71" viewBox="0 0 761 212"><path d="M11 8v8h12v6H11v30.9l-5.2.3-5.3.3-.3 3.7-.3 3.7 5.3.3 5.3.3.3 7.7.3 7.8H24v7H11v54h4c3.6 0 4 .2 4 2.5 0 2.2-.4 2.5-4 2.5h-4v23H5.5c-5.4 0-5.5 0-5.5 3s.1 3 5.5 3H11v8H1v7h10v25h44.1l-.3-12.3-.3-12.2-4.7-.3c-4.7-.3-4.8-.4-4.8-3.7 0-3.3.1-3.4 4.8-3.7 4.7-.3 4.7-.3 5-4.1l.3-3.7H43.9l.3-3.3c.3-3.1.4-3.2 5.6-3.5l5.2-.3V143h4.1c3.6 0 4-.2 3.7-2.3-.2-1.8-1-2.3-4-2.5-2.5-.2-3.8-.8-3.8-1.8 0-1.2 4-1.4 25.8-1.4 14.2 0 29.6-.5 34.2-1 31.8-3.9 49.9-18 55.5-43.5l1.7-7.5h6.3c4.8 0 6.4-.4 6.9-1.6 1.5-3.9.8-4.4-5.9-4.4H173V62h-11v-9h10.2l-.7-4.3c-1-5.8-5.6-17.4-8.8-22.2l-2.7-4 5.6-.3 5.7-.3-2.9-3c-2.5-2.6-3.4-2.9-8.9-2.9-5 0-6.7-.5-9.6-2.6C144.5 9.2 135 5.3 124 2.5L113.7 0H11v8zm92 29c9.6 1.3 17.2 5 21.1 10.3 1.6 2.2 2.9 4.4 2.9 4.9 0 .4-2.3.8-5.1.8-4.8 0-5.1.1-4.5 2.2.3 1.3.6 3.1.6 4 0 1.5.9 1.8 5.5 1.8h5.5v16h6.5c3.6 0 6.5.2 6.5.4 0 .1-.5 1.7-1.1 3.5-1.1 3.1-1.2 3.1-7.9 3.1-6.6 0-7 .1-8.7 3-2.1 3.6-7.2 7.3-13.3 9.6-3.7 1.5-9 1.8-30.2 2.2l-25.8.4V83h13v-6H55V62.1l-5.2-.3-5.3-.3-.3-4.3-.3-4.2H55V36h20.3c11.1 0 23.6.5 27.7 1zM207 8v8h12v6h-12v30.9l-5.2.3-5.3.3-.3 3.7-.3 3.7 5.3.3 5.3.3.3 7.7.3 7.8H220v7h-13v54h4c3.6 0 4 .2 4 2.5 0 2.2-.4 2.5-4 2.5h-4v23h-5.5c-5.4 0-5.5 0-5.5 3s.1 3 5.5 3h5.5v8h-10v7h10v25h49.8c45.3 0 50.7-.2 58.8-1.9 16.7-3.6 30.7-10.5 39.3-19.5l3.5-3.6h-9.5l2.7-3.5c2.4-3.2 3.1-3.5 7.5-3.5 4.5 0 5-.3 7.4-3.8l2.5-3.7-5-.3c-2.7-.2-5-.5-5-.8 0-.3.7-1.8 1.5-3.4 1.4-2.8 2-3 7-3 6.3 0 6.1.3 10.4-12.7l3-8.8 3.8-.3c3.7-.3 5.3-1.5 5.3-4 0-.7-1.4-1.2-3.8-1.2h-3.8l1.4-7.8c.9-4.8 1.5-15.1 1.6-27.4l.1-19.8H398v-6h-13.8l-.6-3.8c-.4-2-1.2-5.4-1.7-7.5-1-3.7-1-3.7-6-3.7-4.8 0-5.1-.2-6.5-3.5-2.1-5.1-1.9-5.5 3.6-5.5 2.8 0 5-.3 5-.8 0-2.9-10.6-20.7-15.7-26.2l-3.5-4h11.6l-2.9-3c-2.6-2.7-3.5-3-9.2-3-5.6 0-6.9-.4-12.3-3.9-6.3-4.1-13.6-6.9-25.5-9.8-6.1-1.5-14.1-1.8-60.2-2L207-.1V8zm101.3 30.4c8.1 2.3 14.6 5.8 19.2 10.5l3.9 4.1h-5.2c-5.6 0-6 .5-3.7 5 1.4 2.8 2 3 7 3h5.4l1.7 5.7c3.1 10.9 2.6 10.3 9.9 10.3h6.5v7h-12.5l.3 15.5c.4 14.3-1.2 31.2-3.4 36.8-.5 1.4.1 1.7 3.5 1.7 3.8 0 4 .1 3.2 2.2-.6 1.8-1.8 2.4-5 2.8-3.9.5-4.2.8-7.1 6.7-1.6 3.5-5 8.5-7.6 11.3-4.5 4.8-4.9 5-10 5-4.2 0-6.3.6-10.1 3l-4.7 3 4.5.1 4.4.1-4 1.2c-2.5.8-13.7 1.5-29.3 1.9-24.8.7-25.4.6-25.9-1.3-.4-1.7-1.4-2-5.4-2H239v-7h10v-22h4.4c4.1 0 4.3-.1 3.8-2.5-.4-2.2-1-2.5-4.3-2.5H249l.2-27.3.3-27.2 6.8-.3c6.7-.3 6.7-.3 6.7-3.2v-3h-14V62h-10v-9h10v-7.8c0-4.3.3-8.2.8-8.6.4-.5 12.4-.6 26.7-.3 19.5.4 27.4.9 31.8 2.1zM584 8v8h12v6h-12v31h-11v7.9l5.3.3 5.2.3.3 7.7.3 7.8H597v7h-13v54h4c3.6 0 4 .2 4 2.5 0 2.2-.4 2.5-4 2.5h-3.9l-.3 11.2-.3 11.3-5.2.3c-5.1.3-5.3.4-5.3 3.3s.1 2.9 5.5 2.9h5.5v8h-10v7h10v25h43v-25h-4.5c-3.8 0-4.5-.3-4.5-1.9 0-1.1-.3-2.6-.6-3.5-.5-1.3.2-1.6 4.5-1.6h5.1v-8h-10v-7h10v-22h4c3.6 0 4-.3 4-2.5 0-2.3-.4-2.5-4-2.5h-4v-15h93V85.8l-46.2.3c-40.7.4-46.3.2-46.3-1.1 0-1.2 1.5-1.6 6.8-1.8 6.7-.3 6.7-.3 6.7-3.2v-3h-14V62h-10v-9h10V37h107V22h12v-6h-12V0H584v8z"/><path d="M392.9 56.8c1.7 3.2 3.5 4.1 8.6 4.4l5 .3 5.3 7.7 5.3 7.8h6.7c6.4 0 6.9.2 8.5 2.9.9 1.6 1.7 3.2 1.7 3.5 0 .3-2.7.6-6 .6s-6 .2-6 .4 7.1 11.2 15.9 24.3l15.8 23.8-1.9 2.7-1.9 2.8h8.1l-1.6 2.4c-1.2 1.9-2.6 2.6-5.7 2.8-4.1.3-4.3.5-11.7 11.3l-7.5 11-5.5.3c-4.3.2-5.9.8-7.2 2.5-2.6 3.3-2.3 3.7 3.2 3.7h5l-2.6 4c-2.5 3.7-3 4-7.5 4-4.1 0-5 .4-6.8 2.9-1.2 1.6-2.1 3.2-2.1 3.5 0 .3 2 .6 4.5.6h4.5l-8 12c-4.4 6.6-8 12.2-8 12.5 0 .3 10.9.5 24.3.5h24.2l7.1-12.3 7.1-12.2-4.8-.3-4.8-.3 2.1-3.5c1.8-3.1 2.4-3.4 6.9-3.4 4.6 0 5-.2 7.1-4 2-3.5 2.7-4 6.1-4 2 0 4-.1 4.4-.3.4-.1 1.8 1.7 3.1 4l2.3 4.3h-4.5c-2.5 0-4.6.2-4.6.5 0 .4.7 1.9 1.5 3.5 1.3 2.5 2.1 2.9 6.6 3.2l5.1.3 7 12.2 7 12.3h50.7l-8.2-12.5-8.2-12.5h-5.2c-4.7 0-5.3-.3-7.2-3.3l-2-3.2 4.4-.3c2.5-.2 4.5-.5 4.5-.8 0-.2-1-2-2.2-3.9-2.2-3.3-2.6-3.5-8-3.5-5.3 0-5.9-.2-7.3-3-.8-1.6-1.5-3.1-1.5-3.5 0-.3 2-.5 4.5-.5s4.5-.2 4.5-.5c0-.2-2.9-4.8-6.5-10-3.6-5.3-6.5-10-6.5-10.6 0-.5 1.6-.9 3.5-.9h3.5l-1.6-2.5c-1.3-2-2.5-2.5-5.6-2.5-4 0-7.7-2.7-7.8-5.8 0-.8 7.3-12.1 16.1-25.3L534.2 83h6.7c6.3 0 6.9-.2 8.9-3l2.3-3h-6.6c-3.6 0-6.5-.2-6.5-.5s2-3.6 4.5-7.3l4.5-6.7-4.5-.3c-4.3-.3-6.1-2.1-3.5-3.7.6-.3 1-1.3 1-2.1 0-1.2-3.7-1.4-23.5-1.4h-23.4l-1.6 3-1.6 3h5.1c2.7 0 5 .2 5 .4 0 .3-1.8 3.5-3.9 7.3-4.6 7.7-4.3 8.3 3.6 8.3h5.3l-2 3.2c-1.8 3.1-2.4 3.3-8.7 3.8l-6.7.5-4.2 7.5c-2.4 4.1-4.8 7.5-5.5 7.5-1.2 0-9.8-13.8-9.9-15.8 0-.4 2.7-.7 6-.7s6-.3 6-.8c0-.4-.7-1.8-1.6-3-1.3-1.9-2.4-2.2-8.2-2.2h-6.7l-4-7.3-4-7.2-5.8-.3c-5.5-.3-5.9-.5-7.4-3.8l-1.7-3.4h-24.8c-23.8 0-24.8.1-23.9 1.8zm77.2 113.4c.9 1.6.5 1.8-3.1 1.8-4.4 0-4.8-.8-2.3-4.6 1.6-2.5 1.7-2.5 3.1-.8.7 1.1 1.8 2.7 2.3 3.6z"/></svg>